<mxfile host="app.diagrams.net" modified="2024-01-19T01:03:42.025Z" agent="Mozilla/5.0 (X11; Linux x86_64; rv:109.0) Gecko/20100101 Firefox/115.0" etag="Jizd9n94iKI9BfxR3P56" version="22.1.21" type="device">
  <diagram name="Page-1" id="zZNsN83qf6kPoxL_SorG">
    <mxGraphModel dx="3772" dy="1524" grid="1" gridSize="10" guides="1" tooltips="1" connect="1" arrows="1" fold="1" page="1" pageScale="1" pageWidth="850" pageHeight="1100" math="0" shadow="0">
      <root>
        <mxCell id="0" />
        <mxCell id="1" parent="0" />
        <mxCell id="w0I4WcaiQEBSUFFf-I7I-1" value="" style="rounded=0;whiteSpace=wrap;html=1;" vertex="1" parent="1">
          <mxGeometry x="140" y="250" width="2000" height="700" as="geometry" />
        </mxCell>
        <mxCell id="w0I4WcaiQEBSUFFf-I7I-2" value="" style="rounded=0;whiteSpace=wrap;html=1;fillColor=#f8cecc;strokeColor=#b85450;" vertex="1" parent="1">
          <mxGeometry x="140" y="250" width="600" height="400" as="geometry" />
        </mxCell>
        <mxCell id="w0I4WcaiQEBSUFFf-I7I-3" value="" style="rounded=0;whiteSpace=wrap;html=1;fillColor=#dae8fc;strokeColor=#6c8ebf;" vertex="1" parent="1">
          <mxGeometry x="1140" y="750" width="1000" height="200" as="geometry" />
        </mxCell>
      </root>
    </mxGraphModel>
  </diagram>
</mxfile>
